<svg width="26" height="26" viewBox="0 0 26 26" fill="none" xmlns="http://www.w3.org/2000/svg">
<path d="M5.87097 13.0001C5.87097 9.22593 9.22581 5.87109 13 5.87109" stroke="#3D2B1F" stroke-width="1.67742" stroke-linecap="round"/>
<path d="M20.129 13C20.129 16.7742 16.7742 20.129 13 20.129" stroke="#F5EFE6" stroke-width="1.67742" stroke-linecap="round"/>
<path d="M13 15.0969C14.158 15.0969 15.0968 14.1581 15.0968 13.0001C15.0968 11.8421 14.158 10.9033 13 10.9033C11.842 10.9033 10.9032 11.8421 10.9032 13.0001C10.9032 14.1581 11.842 15.0969 13 15.0969Z" fill="#3D2B1F"/>
<path d="M13 14.0484C13.579 14.0484 14.0484 13.5791 14.0484 13C14.0484 12.421 13.579 11.9517 13 11.9517C12.421 11.9517 11.9516 12.421 11.9516 13C11.9516 13.5791 12.421 14.0484 13 14.0484Z" fill="#C47B3A"/>
</svg>
