<svg width="48" height="48" viewBox="0 0 48 48" fill="none" xmlns="http://www.w3.org/2000/svg">
<path d="M10.8387 24.0002C10.8387 17.0324 17.0323 10.8389 24 10.8389" stroke="#C47B3A" stroke-width="2.70968" stroke-linecap="round"/>
<path d="M37.1613 24C37.1613 30.9677 30.9677 37.1613 24 37.1613" stroke="#3D2B1F" stroke-width="2.70968" stroke-linecap="round"/>
<path d="M24 27.8708C26.1379 27.8708 27.871 26.1378 27.871 23.9999C27.871 21.862 26.1379 20.1289 24 20.1289C21.8621 20.1289 20.129 21.862 20.129 23.9999C20.129 26.1378 21.8621 27.8708 24 27.8708Z" fill="#C47B3A"/>
<path d="M24 25.9354C25.0689 25.9354 25.9355 25.0689 25.9355 23.9999C25.9355 22.931 25.0689 22.0645 24 22.0645C22.9311 22.0645 22.0645 22.931 22.0645 23.9999C22.0645 25.0689 22.9311 25.9354 24 25.9354Z" fill="white"/>
<path d="M29.4193 12.3873L32.5161 9.29053L35.6129 12.3873L32.5161 15.4841L29.4193 12.3873Z" fill="#C47B3A"/>
<path opacity="0.4" d="M18.5806 35.6129L15.4839 38.7097L12.3871 35.6129L15.4839 32.5161L18.5806 35.6129Z" fill="#3D2B1F"/>
</svg>
